<svg width="99" height="111" viewBox="0 0 99 111" fill="none" xmlns="http://www.w3.org/2000/svg">
<mask id="mask0_8_537" style="mask-type:luminance" maskUnits="userSpaceOnUse" x="0" y="0" width="99" height="111">
<path d="M98.6071 0H0V110.654H98.6071V0Z" fill="white"/>
</mask>
<g mask="url(#mask0_8_537)">
<path d="M47.9047 98.1361C47.9047 98.1361 47.5038 105.785 37.1259 105.785C22.7545 105.785 8.78043 80.7518 8.78043 66.4973C8.78043 52.2416 17.5643 38.333 29.5399 38.333C41.5166 38.333 47.9035 50.8497 47.9035 50.8497L47.9047 98.1361ZM94.2106 46.3303C78.2416 17.1236 48.302 37.6376 48.302 37.6376C48.302 37.6376 35.5294 32.4229 28.3431 32.4229C21.158 32.4229 0.0012207 39.3778 0.0012207 67.5397C0.0012207 95.704 26.3494 110.655 37.5244 110.655C48.6994 110.655 48.7029 104.05 48.7029 104.05C48.7029 104.05 48.302 110.655 63.474 110.655C78.6436 110.654 110.178 75.5347 94.2106 46.3303Z" fill="#1A1A1A"/>
</g>
<mask id="mask1_8_537" style="mask-type:luminance" maskUnits="userSpaceOnUse" x="0" y="0" width="99" height="111">
<path d="M98.6071 0H0V110.654H98.6071V0Z" fill="white"/>
</mask>
<g mask="url(#mask1_8_537)">
<path d="M31.6366 69.495C31.6366 70.5748 28.8878 71.4514 25.4986 71.4514C22.1094 71.4514 19.3618 70.5748 19.3618 69.495C19.3618 68.4151 22.1106 67.5386 25.4986 67.5386C28.8866 67.5386 31.6366 68.4151 31.6366 69.495Z" fill="#1A1A1A"/>
</g>
<mask id="mask2_8_537" style="mask-type:luminance" maskUnits="userSpaceOnUse" x="0" y="0" width="99" height="111">
<path d="M98.6071 0H0V110.654H98.6071V0Z" fill="white"/>
</mask>
<g mask="url(#mask2_8_537)">
<path d="M49.6005 28.6843C49.6005 28.6843 48.7018 4.17106 74.4504 0C77.7461 25.0334 49.6005 28.6843 49.6005 28.6843Z" fill="#1A1A1A"/>
</g>
<mask id="mask3_8_537" style="mask-type:luminance" maskUnits="userSpaceOnUse" x="0" y="0" width="99" height="111">
<path d="M98.6071 0H0V110.654H98.6071V0Z" fill="white"/>
</mask>
<g mask="url(#mask3_8_537)">
<path d="M47.8053 35.9864C47.8053 35.9864 31.9356 10.6912 20.8576 8.34448C18.1626 11.4731 17.5654 13.5603 17.5654 13.5603C17.5654 13.5603 33.7319 18.5144 47.8053 35.9864Z" fill="#1A1A1A"/>
</g>
<mask id="mask4_8_537" style="mask-type:luminance" maskUnits="userSpaceOnUse" x="0" y="0" width="99" height="111">
<path d="M98.6071 0H0V110.654H98.6071V0Z" fill="white"/>
</mask>
<g mask="url(#mask4_8_537)">
<path d="M34.1585 55.1213C33.6828 56.1171 30.7588 56.006 27.6302 54.8724C24.4993 53.7388 22.35 52.0115 22.8257 51.0134C23.3025 50.0165 26.2254 50.1264 29.354 51.2612C32.4837 52.3948 34.6353 54.1233 34.1585 55.1213Z" fill="#1A1A1A"/>
</g>
<mask id="mask5_8_537" style="mask-type:luminance" maskUnits="userSpaceOnUse" x="0" y="0" width="99" height="111">
<path d="M98.6071 0H0V110.654H98.6071V0Z" fill="white"/>
</mask>
<g mask="url(#mask5_8_537)">
<path d="M37.1257 83.5544C37.6142 84.5466 35.486 86.2961 32.3726 87.4601C29.2569 88.6241 26.3352 88.7644 25.8466 87.7733C25.3581 86.7811 27.4863 85.0304 30.5997 83.8664C33.7154 82.7036 36.636 82.5622 37.1257 83.5544Z" fill="#1A1A1A"/>
</g>
</svg>
